<svg width="16" height="16" viewBox="0 0 16 16" fill="none" xmlns="http://www.w3.org/2000/svg">
<path d="M9.85189 5.5309H7.07412C6.73032 5.5309 6.4006 5.66098 6.1575 5.8925C5.91439 6.12403 5.77782 6.43805 5.77782 6.76547C5.77782 7.0929 5.91439 7.40692 6.1575 7.63844C6.4006 7.86997 6.73032 8.00004 7.07412 8.00004H8.92597C9.26977 8.00004 9.59948 8.13011 9.84259 8.36164C10.0857 8.59316 10.2223 8.90718 10.2223 9.23461C10.2223 9.56204 10.0857 9.87605 9.84259 10.1076C9.59948 10.3391 9.26977 10.4692 8.92597 10.4692H5.77782M8.00004 4.29634V11.7037M4.33337 14.6667H11.6667C13.3236 14.6667 14.6667 13.3236 14.6667 11.6667V4.33337C14.6667 2.67652 13.3236 1.33337 11.6667 1.33337H4.33337C2.67652 1.33337 1.33337 2.67652 1.33337 4.33337V11.6667C1.33337 13.3236 2.67652 14.6667 4.33337 14.6667Z" stroke="#00C5CB" stroke-width="1.5" stroke-linecap="round" stroke-linejoin="round"/>
</svg>
